<svg width="200" height="200" viewBox="0 0 32 29.6" xmlns="http://www.w3.org/2000/svg">
  <!-- Left half of the heart -->
  <path d="M16,29.6c-0.5,0-1-0.1-1.4-0.3C9.1,25.5,5.2,22.7,2.4,19.3C0.9,17.4,0,15.3,0,13.2
  C0,9.1,3.3,5.8,7.4,5.8c2.2,0,4.4,1,5.6,2.6C13.2,6.7,14.7,6,16,6s2.8,0.7,3-1.6c1.2-1.6,3.4-2.6,5.6-2.6c4.1,0,7.4,3.3,7.4,7.4
  c0,2.1-0.9,4.2-2.4,6.1c-2.8,3.4-6.7,6.2-10.2,8.9C17,29.5,16.5,29.6,16,29.6z" fill="red"/>
  <!-- Right half of the heart -->
  <path d="M16,29.6c0.5,0,1-0.1,1.4-0.3C22.9,25.5,26.8,22.7,29.6,19.3C31.1,17.4,32,15.3,32,13.2
  C32,9.1,28.7,5.8,24.6,5.8c-2.2,0-4.4,1-5.6,2.6C18.8,6.7,17.3,6,16,6s-2.8,0.7-3,1.6c-1.2,1.6-3.4,2.6-5.6,2.6c-4.1,0-7.4,3.3-7.4,7.4
  c0,2.1,0.9,4.2,2.4,6.1c2.8,3.4,6.7,6.2,10.2,8.9C15,29.5,15.5,29.6,16,29.6z" fill="red"/>
</svg>
